# xmcd
#
# Track frame offsets:
#	151
#	9329
#	20522
#	31685
#	42222
#	54934
#	65966
#	77643
#	88858
#	98985
#	109090
#	120468
#	131074
#	140750
#	152308
#	164030
#	176987
#	187512
#
# Disc length: 2642 seconds
#
# Revision: 1
# Processed by: cddbd v1.5.1PL0 Copyright (c) Steve Scherf et al.
# Submitted via: EasyCDDAExtractor 6.2.0.3
#
DISCID=e80a5012
DTITLE=Patsy Cline - Those Were The Days
DYEAR=1900
DGENRE=Comedy
TTITLE0=Walkin' After Midnight
TTITLE1=Just Out Of Reach
TTITLE2=I Can't Forget You
TTITLE3=I Love You Money
TTITLE4=Yes I Understand
TTITLE5=Don't Ever Leave Me Again
TTITLE6=Today, Tomorrow, Forever
TTITLE7=Mungry For Love
TTITLE8=I'm Moving Along
TTITLE9=Pick Me Up On Your Way Down
TTITLE10=I've Loved And Lost Again
TTITLE11=I Don't Wanna
TTITLE12=I'm Blue Again
TTITLE13=Let The Tear Drops Fall
TTITLE14=Never No More
TTITLE15=Just A Close Walk With Thee
TTITLE16=I Can See An Angle
TTITLE17=Too Many Secrets
EXTD=
EXTT0=
EXTT1=
EXTT2=
EXTT3=
EXTT4=
EXTT5=
EXTT6=
EXTT7=
EXTT8=
EXTT9=
EXTT10=
EXTT11=
EXTT12=
EXTT13=
EXTT14=
EXTT15=
EXTT16=
EXTT17=
PLAYORDER=
